<mxfile host="app.diagrams.net" modified="2022-02-24T08:38:08.922Z" agent="5.0 (Windows NT 10.0; Win64; x64) AppleWebKit/537.36 (KHTML, like Gecko) Chrome/98.0.4758.102 Safari/537.36" etag="MfGATHPpZC-1jNUHqu9O" version="16.6.3" type="github">
  <diagram id="cWxc6TrsvrkpSoTxh3Eb" name="Page-1">
    <mxGraphModel dx="1304" dy="501" grid="1" gridSize="10" guides="1" tooltips="1" connect="1" arrows="1" fold="1" page="1" pageScale="1" pageWidth="827" pageHeight="1169" math="0" shadow="0">
      <root>
        <mxCell id="0" />
        <mxCell id="1" parent="0" />
        <mxCell id="2jlAlg18dNJ3QNVqOmmQ-26" value="" style="group;fontColor=#FF0000;" vertex="1" connectable="0" parent="1">
          <mxGeometry x="105" y="120" width="60" height="30" as="geometry" />
        </mxCell>
        <mxCell id="2jlAlg18dNJ3QNVqOmmQ-1" value="" style="rounded=0;whiteSpace=wrap;html=1;fontColor=#000000;" vertex="1" parent="2jlAlg18dNJ3QNVqOmmQ-26">
          <mxGeometry x="15" width="30" height="30" as="geometry" />
        </mxCell>
        <mxCell id="2jlAlg18dNJ3QNVqOmmQ-2" value="&lt;span style=&quot;color: rgb(255 , 0 , 0) ; font-size: 16px&quot;&gt;33&lt;/span&gt;" style="text;html=1;strokeColor=none;fillColor=none;align=center;verticalAlign=middle;whiteSpace=wrap;rounded=0;fontSize=14;fontColor=#000000;" vertex="1" parent="2jlAlg18dNJ3QNVqOmmQ-26">
          <mxGeometry width="60" height="30" as="geometry" />
        </mxCell>
        <mxCell id="2jlAlg18dNJ3QNVqOmmQ-27" value="" style="group;fontColor=#FF0000;" vertex="1" connectable="0" parent="1">
          <mxGeometry x="105" y="160" width="60" height="30" as="geometry" />
        </mxCell>
        <mxCell id="2jlAlg18dNJ3QNVqOmmQ-28" value="" style="rounded=0;whiteSpace=wrap;html=1;fontColor=#000000;" vertex="1" parent="2jlAlg18dNJ3QNVqOmmQ-27">
          <mxGeometry x="15" width="30" height="30" as="geometry" />
        </mxCell>
        <mxCell id="2jlAlg18dNJ3QNVqOmmQ-29" value="&lt;span style=&quot;color: rgb(255 , 0 , 0) ; font-size: 16px&quot;&gt;34&lt;/span&gt;" style="text;html=1;strokeColor=none;fillColor=none;align=center;verticalAlign=middle;whiteSpace=wrap;rounded=0;fontSize=14;fontColor=#000000;" vertex="1" parent="2jlAlg18dNJ3QNVqOmmQ-27">
          <mxGeometry width="60" height="30" as="geometry" />
        </mxCell>
        <mxCell id="2jlAlg18dNJ3QNVqOmmQ-30" value="" style="group;fontColor=#FF0000;" vertex="1" connectable="0" parent="1">
          <mxGeometry x="105" y="200" width="60" height="30" as="geometry" />
        </mxCell>
        <mxCell id="2jlAlg18dNJ3QNVqOmmQ-31" value="" style="rounded=0;whiteSpace=wrap;html=1;fontColor=#000000;" vertex="1" parent="2jlAlg18dNJ3QNVqOmmQ-30">
          <mxGeometry x="15" width="30" height="30" as="geometry" />
        </mxCell>
        <mxCell id="2jlAlg18dNJ3QNVqOmmQ-32" value="&lt;span style=&quot;color: rgb(255 , 0 , 0) ; font-size: 16px&quot;&gt;35&lt;/span&gt;" style="text;html=1;strokeColor=none;fillColor=none;align=center;verticalAlign=middle;whiteSpace=wrap;rounded=0;fontSize=14;fontColor=#000000;" vertex="1" parent="2jlAlg18dNJ3QNVqOmmQ-30">
          <mxGeometry width="60" height="30" as="geometry" />
        </mxCell>
        <mxCell id="2jlAlg18dNJ3QNVqOmmQ-33" value="" style="group;fontColor=#FF0000;" vertex="1" connectable="0" parent="1">
          <mxGeometry x="105" y="240" width="60" height="30" as="geometry" />
        </mxCell>
        <mxCell id="2jlAlg18dNJ3QNVqOmmQ-34" value="" style="rounded=0;whiteSpace=wrap;html=1;fontColor=#000000;" vertex="1" parent="2jlAlg18dNJ3QNVqOmmQ-33">
          <mxGeometry x="15" width="30" height="30" as="geometry" />
        </mxCell>
        <mxCell id="2jlAlg18dNJ3QNVqOmmQ-35" value="&lt;span style=&quot;color: rgb(255 , 0 , 0) ; font-size: 16px&quot;&gt;36&lt;/span&gt;" style="text;html=1;strokeColor=none;fillColor=none;align=center;verticalAlign=middle;whiteSpace=wrap;rounded=0;fontSize=14;fontColor=#000000;" vertex="1" parent="2jlAlg18dNJ3QNVqOmmQ-33">
          <mxGeometry width="60" height="30" as="geometry" />
        </mxCell>
        <mxCell id="2jlAlg18dNJ3QNVqOmmQ-52" value="" style="group;fontColor=#000000;" vertex="1" connectable="0" parent="1">
          <mxGeometry x="105" y="80" width="60" height="30" as="geometry" />
        </mxCell>
        <mxCell id="2jlAlg18dNJ3QNVqOmmQ-53" value="" style="rounded=0;whiteSpace=wrap;html=1;fontColor=#000000;" vertex="1" parent="2jlAlg18dNJ3QNVqOmmQ-52">
          <mxGeometry x="15" width="30" height="30" as="geometry" />
        </mxCell>
        <mxCell id="2jlAlg18dNJ3QNVqOmmQ-54" value="&lt;font style=&quot;font-size: 16px&quot; color=&quot;#ff0000&quot;&gt;32&lt;/font&gt;" style="text;html=1;strokeColor=none;fillColor=none;align=center;verticalAlign=middle;whiteSpace=wrap;rounded=0;fontSize=14;fontColor=#000000;" vertex="1" parent="2jlAlg18dNJ3QNVqOmmQ-52">
          <mxGeometry width="60" height="30" as="geometry" />
        </mxCell>
        <mxCell id="2jlAlg18dNJ3QNVqOmmQ-122" value="" style="edgeStyle=orthogonalEdgeStyle;rounded=0;orthogonalLoop=1;jettySize=auto;html=1;fontSize=16;fontColor=#000000;strokeColor=#FFFFFF;" edge="1" parent="1" source="2jlAlg18dNJ3QNVqOmmQ-59">
          <mxGeometry relative="1" as="geometry">
            <mxPoint x="325" y="535" as="targetPoint" />
          </mxGeometry>
        </mxCell>
        <mxCell id="2jlAlg18dNJ3QNVqOmmQ-59" value="[32,33,34,35,36,0,3]" style="text;html=1;strokeColor=none;fillColor=none;align=left;verticalAlign=middle;whiteSpace=wrap;rounded=0;fontSize=16;fontColor=#000000;" vertex="1" parent="1">
          <mxGeometry x="82.5" y="520" width="147.5" height="30" as="geometry" />
        </mxCell>
        <mxCell id="2jlAlg18dNJ3QNVqOmmQ-61" value="" style="shape=singleArrow;whiteSpace=wrap;html=1;fontSize=16;fontColor=#000000;" vertex="1" parent="1">
          <mxGeometry x="435" y="200" width="100" height="60" as="geometry" />
        </mxCell>
        <mxCell id="2jlAlg18dNJ3QNVqOmmQ-62" value="&lt;font color=&quot;#ff0000&quot;&gt;右移[32,33,34,35,36]&lt;br&gt;当前页已无数据，回退上一页&lt;br&gt;&lt;/font&gt;" style="text;html=1;strokeColor=none;fillColor=none;align=center;verticalAlign=middle;whiteSpace=wrap;rounded=0;fontSize=16;fontColor=#000000;" vertex="1" parent="1">
          <mxGeometry x="430" y="280" width="130" height="30" as="geometry" />
        </mxCell>
        <mxCell id="2jlAlg18dNJ3QNVqOmmQ-64" value="Left" style="text;html=1;strokeColor=none;fillColor=none;align=center;verticalAlign=middle;whiteSpace=wrap;rounded=0;dashed=1;fontSize=16;fontColor=#FF0000;" vertex="1" parent="1">
          <mxGeometry x="105" y="40" width="60" height="30" as="geometry" />
        </mxCell>
        <mxCell id="2jlAlg18dNJ3QNVqOmmQ-65" value="Right" style="text;html=1;strokeColor=none;fillColor=none;align=center;verticalAlign=middle;whiteSpace=wrap;rounded=0;dashed=1;fontSize=16;fontColor=#FF0000;" vertex="1" parent="1">
          <mxGeometry x="325" y="40" width="60" height="30" as="geometry" />
        </mxCell>
        <mxCell id="2jlAlg18dNJ3QNVqOmmQ-67" value="" style="group;fontColor=#000000;" vertex="1" connectable="0" parent="1">
          <mxGeometry x="605" y="80" width="60" height="30" as="geometry" />
        </mxCell>
        <mxCell id="2jlAlg18dNJ3QNVqOmmQ-68" value="" style="rounded=0;whiteSpace=wrap;html=1;fontColor=#000000;" vertex="1" parent="2jlAlg18dNJ3QNVqOmmQ-67">
          <mxGeometry x="15" width="30" height="30" as="geometry" />
        </mxCell>
        <mxCell id="2jlAlg18dNJ3QNVqOmmQ-69" value="&lt;font style=&quot;font-size: 16px&quot;&gt;22&lt;/font&gt;" style="text;html=1;strokeColor=none;fillColor=none;align=center;verticalAlign=middle;whiteSpace=wrap;rounded=0;fontSize=14;fontColor=#000000;" vertex="1" parent="2jlAlg18dNJ3QNVqOmmQ-67">
          <mxGeometry width="60" height="30" as="geometry" />
        </mxCell>
        <mxCell id="2jlAlg18dNJ3QNVqOmmQ-70" value="" style="group;fontColor=#000000;" vertex="1" connectable="0" parent="1">
          <mxGeometry x="605" y="120" width="60" height="30" as="geometry" />
        </mxCell>
        <mxCell id="2jlAlg18dNJ3QNVqOmmQ-71" value="" style="rounded=0;whiteSpace=wrap;html=1;fontColor=#000000;" vertex="1" parent="2jlAlg18dNJ3QNVqOmmQ-70">
          <mxGeometry x="15" width="30" height="30" as="geometry" />
        </mxCell>
        <mxCell id="2jlAlg18dNJ3QNVqOmmQ-72" value="&lt;font&gt;&lt;span style=&quot;font-size: 16px&quot;&gt;23&lt;/span&gt;&lt;/font&gt;" style="text;html=1;strokeColor=none;fillColor=none;align=center;verticalAlign=middle;whiteSpace=wrap;rounded=0;fontSize=14;fontColor=#000000;" vertex="1" parent="2jlAlg18dNJ3QNVqOmmQ-70">
          <mxGeometry width="60" height="30" as="geometry" />
        </mxCell>
        <mxCell id="2jlAlg18dNJ3QNVqOmmQ-76" value="" style="group;fontColor=#000000;" vertex="1" connectable="0" parent="1">
          <mxGeometry x="605" y="160" width="60" height="30" as="geometry" />
        </mxCell>
        <mxCell id="2jlAlg18dNJ3QNVqOmmQ-77" value="" style="rounded=0;whiteSpace=wrap;html=1;fontColor=#000000;" vertex="1" parent="2jlAlg18dNJ3QNVqOmmQ-76">
          <mxGeometry x="15" width="30" height="30" as="geometry" />
        </mxCell>
        <mxCell id="2jlAlg18dNJ3QNVqOmmQ-78" value="&lt;font&gt;&lt;span style=&quot;font-size: 16px&quot;&gt;24&lt;/span&gt;&lt;/font&gt;" style="text;html=1;strokeColor=none;fillColor=none;align=center;verticalAlign=middle;whiteSpace=wrap;rounded=0;fontSize=14;fontColor=#000000;" vertex="1" parent="2jlAlg18dNJ3QNVqOmmQ-76">
          <mxGeometry width="60" height="30" as="geometry" />
        </mxCell>
        <mxCell id="2jlAlg18dNJ3QNVqOmmQ-79" value="" style="group;fontColor=#000000;" vertex="1" connectable="0" parent="1">
          <mxGeometry x="605" y="200" width="60" height="30" as="geometry" />
        </mxCell>
        <mxCell id="2jlAlg18dNJ3QNVqOmmQ-80" value="" style="rounded=0;whiteSpace=wrap;html=1;fontColor=#000000;" vertex="1" parent="2jlAlg18dNJ3QNVqOmmQ-79">
          <mxGeometry x="15" width="30" height="30" as="geometry" />
        </mxCell>
        <mxCell id="2jlAlg18dNJ3QNVqOmmQ-81" value="&lt;font&gt;&lt;span style=&quot;font-size: 16px&quot;&gt;25&lt;/span&gt;&lt;/font&gt;" style="text;html=1;strokeColor=none;fillColor=none;align=center;verticalAlign=middle;whiteSpace=wrap;rounded=0;fontSize=14;fontColor=#000000;" vertex="1" parent="2jlAlg18dNJ3QNVqOmmQ-79">
          <mxGeometry width="60" height="30" as="geometry" />
        </mxCell>
        <mxCell id="2jlAlg18dNJ3QNVqOmmQ-82" value="" style="group;fontColor=#000000;" vertex="1" connectable="0" parent="1">
          <mxGeometry x="605" y="240" width="60" height="30" as="geometry" />
        </mxCell>
        <mxCell id="2jlAlg18dNJ3QNVqOmmQ-83" value="" style="rounded=0;whiteSpace=wrap;html=1;fontColor=#000000;" vertex="1" parent="2jlAlg18dNJ3QNVqOmmQ-82">
          <mxGeometry x="15" width="30" height="30" as="geometry" />
        </mxCell>
        <mxCell id="2jlAlg18dNJ3QNVqOmmQ-84" value="&lt;font&gt;&lt;span style=&quot;font-size: 16px&quot;&gt;26&lt;/span&gt;&lt;/font&gt;" style="text;html=1;strokeColor=none;fillColor=none;align=center;verticalAlign=middle;whiteSpace=wrap;rounded=0;fontSize=14;fontColor=#000000;" vertex="1" parent="2jlAlg18dNJ3QNVqOmmQ-82">
          <mxGeometry width="60" height="30" as="geometry" />
        </mxCell>
        <mxCell id="2jlAlg18dNJ3QNVqOmmQ-85" value="" style="group;fontColor=#000000;" vertex="1" connectable="0" parent="1">
          <mxGeometry x="605" y="280" width="60" height="30" as="geometry" />
        </mxCell>
        <mxCell id="2jlAlg18dNJ3QNVqOmmQ-86" value="" style="rounded=0;whiteSpace=wrap;html=1;fontColor=#000000;" vertex="1" parent="2jlAlg18dNJ3QNVqOmmQ-85">
          <mxGeometry x="15" width="30" height="30" as="geometry" />
        </mxCell>
        <mxCell id="2jlAlg18dNJ3QNVqOmmQ-87" value="&lt;font style=&quot;font-size: 16px&quot;&gt;27&lt;/font&gt;" style="text;html=1;strokeColor=none;fillColor=none;align=center;verticalAlign=middle;whiteSpace=wrap;rounded=0;fontSize=14;fontColor=#000000;" vertex="1" parent="2jlAlg18dNJ3QNVqOmmQ-85">
          <mxGeometry width="60" height="30" as="geometry" />
        </mxCell>
        <mxCell id="2jlAlg18dNJ3QNVqOmmQ-88" value="" style="group;fontColor=#000000;" vertex="1" connectable="0" parent="1">
          <mxGeometry x="605" y="320" width="60" height="30" as="geometry" />
        </mxCell>
        <mxCell id="2jlAlg18dNJ3QNVqOmmQ-89" value="" style="rounded=0;whiteSpace=wrap;html=1;fontColor=#000000;" vertex="1" parent="2jlAlg18dNJ3QNVqOmmQ-88">
          <mxGeometry x="15" width="30" height="30" as="geometry" />
        </mxCell>
        <mxCell id="2jlAlg18dNJ3QNVqOmmQ-90" value="&lt;font&gt;&lt;span style=&quot;font-size: 16px&quot;&gt;28&lt;/span&gt;&lt;/font&gt;" style="text;html=1;strokeColor=none;fillColor=none;align=center;verticalAlign=middle;whiteSpace=wrap;rounded=0;fontSize=14;fontColor=#000000;" vertex="1" parent="2jlAlg18dNJ3QNVqOmmQ-88">
          <mxGeometry width="60" height="30" as="geometry" />
        </mxCell>
        <mxCell id="2jlAlg18dNJ3QNVqOmmQ-94" value="" style="group;fontColor=#000000;" vertex="1" connectable="0" parent="1">
          <mxGeometry x="605" y="360" width="60" height="30" as="geometry" />
        </mxCell>
        <mxCell id="2jlAlg18dNJ3QNVqOmmQ-95" value="" style="rounded=0;whiteSpace=wrap;html=1;fontColor=#000000;" vertex="1" parent="2jlAlg18dNJ3QNVqOmmQ-94">
          <mxGeometry x="15" width="30" height="30" as="geometry" />
        </mxCell>
        <mxCell id="2jlAlg18dNJ3QNVqOmmQ-96" value="&lt;font&gt;&lt;span style=&quot;font-size: 16px&quot;&gt;29&lt;/span&gt;&lt;/font&gt;" style="text;html=1;strokeColor=none;fillColor=none;align=center;verticalAlign=middle;whiteSpace=wrap;rounded=0;fontSize=14;fontColor=#000000;" vertex="1" parent="2jlAlg18dNJ3QNVqOmmQ-94">
          <mxGeometry width="60" height="30" as="geometry" />
        </mxCell>
        <mxCell id="2jlAlg18dNJ3QNVqOmmQ-182" value="" style="edgeStyle=orthogonalEdgeStyle;rounded=0;orthogonalLoop=1;jettySize=auto;html=1;fontSize=12;fontColor=#FF0000;strokeColor=#FFFFFF;" edge="1" parent="1" source="2jlAlg18dNJ3QNVqOmmQ-97" target="2jlAlg18dNJ3QNVqOmmQ-128">
          <mxGeometry relative="1" as="geometry" />
        </mxCell>
        <mxCell id="2jlAlg18dNJ3QNVqOmmQ-183" value="" style="edgeStyle=orthogonalEdgeStyle;rounded=0;orthogonalLoop=1;jettySize=auto;html=1;fontSize=12;fontColor=#FF0000;strokeColor=#FFFFFF;" edge="1" parent="1" source="2jlAlg18dNJ3QNVqOmmQ-97" target="2jlAlg18dNJ3QNVqOmmQ-128">
          <mxGeometry relative="1" as="geometry" />
        </mxCell>
        <mxCell id="2jlAlg18dNJ3QNVqOmmQ-97" value="[22,23,24,25,26,27,28,29,30,31,&lt;span style=&quot;text-align: center&quot;&gt;0,3,32,33,34,35,36&lt;/span&gt;]" style="text;html=1;strokeColor=none;fillColor=none;align=left;verticalAlign=middle;whiteSpace=wrap;rounded=0;fontSize=16;fontColor=#000000;" vertex="1" parent="1">
          <mxGeometry x="580" y="520" width="200" height="30" as="geometry" />
        </mxCell>
        <mxCell id="2jlAlg18dNJ3QNVqOmmQ-99" value="Left" style="text;html=1;strokeColor=none;fillColor=none;align=center;verticalAlign=middle;whiteSpace=wrap;rounded=0;dashed=1;fontSize=16;fontColor=#FF0000;" vertex="1" parent="1">
          <mxGeometry x="605" y="40" width="60" height="30" as="geometry" />
        </mxCell>
        <mxCell id="2jlAlg18dNJ3QNVqOmmQ-100" value="Right" style="text;html=1;strokeColor=none;fillColor=none;align=center;verticalAlign=middle;whiteSpace=wrap;rounded=0;dashed=1;fontSize=16;fontColor=#FF0000;" vertex="1" parent="1">
          <mxGeometry x="825" y="40" width="60" height="30" as="geometry" />
        </mxCell>
        <mxCell id="2jlAlg18dNJ3QNVqOmmQ-101" value="[0,3,32,33,34,35,36]" style="text;html=1;strokeColor=none;fillColor=none;align=center;verticalAlign=middle;whiteSpace=wrap;rounded=0;fontSize=16;fontColor=#000000;" vertex="1" parent="1">
          <mxGeometry x="939" y="520" width="191" height="30" as="geometry" />
        </mxCell>
        <mxCell id="2jlAlg18dNJ3QNVqOmmQ-110" value="" style="group" vertex="1" connectable="0" parent="1">
          <mxGeometry x="245" y="245" width="20" height="20" as="geometry" />
        </mxCell>
        <mxCell id="2jlAlg18dNJ3QNVqOmmQ-103" value="" style="rounded=0;whiteSpace=wrap;html=1;dashed=1;fontSize=16;fontColor=#FF0000;fillColor=#FF0000;" vertex="1" parent="2jlAlg18dNJ3QNVqOmmQ-110">
          <mxGeometry width="20" height="20" as="geometry" />
        </mxCell>
        <mxCell id="2jlAlg18dNJ3QNVqOmmQ-107" value="" style="endArrow=classic;html=1;rounded=0;fontSize=16;fontColor=#FF0000;strokeColor=#FFFFFF;" edge="1" parent="2jlAlg18dNJ3QNVqOmmQ-110">
          <mxGeometry relative="1" as="geometry">
            <mxPoint y="9.5" as="sourcePoint" />
            <mxPoint x="20" y="10" as="targetPoint" />
          </mxGeometry>
        </mxCell>
        <mxCell id="2jlAlg18dNJ3QNVqOmmQ-111" value="" style="group;rotation=-180;" vertex="1" connectable="0" parent="1">
          <mxGeometry x="215" y="245" width="20" height="20" as="geometry" />
        </mxCell>
        <mxCell id="2jlAlg18dNJ3QNVqOmmQ-112" value="" style="rounded=0;whiteSpace=wrap;html=1;dashed=1;fontSize=16;fontColor=#FF0000;rotation=-180;" vertex="1" parent="2jlAlg18dNJ3QNVqOmmQ-111">
          <mxGeometry width="20" height="20" as="geometry" />
        </mxCell>
        <mxCell id="2jlAlg18dNJ3QNVqOmmQ-113" value="" style="endArrow=classic;html=1;rounded=0;fontSize=16;fontColor=#FF0000;" edge="1" parent="2jlAlg18dNJ3QNVqOmmQ-111">
          <mxGeometry relative="1" as="geometry">
            <mxPoint x="20" y="10" as="sourcePoint" />
            <mxPoint y="10" as="targetPoint" />
          </mxGeometry>
        </mxCell>
        <mxCell id="2jlAlg18dNJ3QNVqOmmQ-115" value="" style="group;fontColor=#000000;" vertex="1" connectable="0" parent="1">
          <mxGeometry x="825" y="80" width="60" height="30" as="geometry" />
        </mxCell>
        <mxCell id="2jlAlg18dNJ3QNVqOmmQ-116" value="" style="rounded=0;whiteSpace=wrap;html=1;fontColor=#000000;" vertex="1" parent="2jlAlg18dNJ3QNVqOmmQ-115">
          <mxGeometry x="15" width="30" height="30" as="geometry" />
        </mxCell>
        <mxCell id="2jlAlg18dNJ3QNVqOmmQ-117" value="&lt;font style=&quot;font-size: 16px&quot;&gt;0&lt;/font&gt;" style="text;html=1;strokeColor=none;fillColor=none;align=center;verticalAlign=middle;whiteSpace=wrap;rounded=0;fontSize=14;fontColor=#000000;" vertex="1" parent="2jlAlg18dNJ3QNVqOmmQ-115">
          <mxGeometry width="60" height="30" as="geometry" />
        </mxCell>
        <mxCell id="2jlAlg18dNJ3QNVqOmmQ-118" value="" style="group;fontColor=#000000;" vertex="1" connectable="0" parent="1">
          <mxGeometry x="825" y="120" width="60" height="30" as="geometry" />
        </mxCell>
        <mxCell id="2jlAlg18dNJ3QNVqOmmQ-119" value="" style="rounded=0;whiteSpace=wrap;html=1;fontColor=#000000;" vertex="1" parent="2jlAlg18dNJ3QNVqOmmQ-118">
          <mxGeometry x="15" width="30" height="30" as="geometry" />
        </mxCell>
        <mxCell id="2jlAlg18dNJ3QNVqOmmQ-120" value="&lt;font style=&quot;font-size: 16px&quot;&gt;3&lt;/font&gt;" style="text;html=1;strokeColor=none;fillColor=none;align=center;verticalAlign=middle;whiteSpace=wrap;rounded=0;fontSize=14;fontColor=#000000;" vertex="1" parent="2jlAlg18dNJ3QNVqOmmQ-118">
          <mxGeometry width="60" height="30" as="geometry" />
        </mxCell>
        <mxCell id="2jlAlg18dNJ3QNVqOmmQ-124" value="&lt;font style=&quot;font-size: 12px&quot;&gt;显示数组&lt;/font&gt;" style="text;html=1;align=center;verticalAlign=middle;resizable=0;points=[];autosize=1;strokeColor=none;fillColor=none;fontSize=16;fontColor=#000000;" vertex="1" parent="1">
          <mxGeometry x="5" y="520" width="60" height="30" as="geometry" />
        </mxCell>
        <mxCell id="2jlAlg18dNJ3QNVqOmmQ-125" value="&lt;font style=&quot;font-size: 12px&quot;&gt;处理数组&lt;/font&gt;" style="text;html=1;align=center;verticalAlign=middle;resizable=0;points=[];autosize=1;strokeColor=none;fillColor=none;fontSize=16;fontColor=#000000;" vertex="1" parent="1">
          <mxGeometry x="5" y="570" width="60" height="30" as="geometry" />
        </mxCell>
        <mxCell id="2jlAlg18dNJ3QNVqOmmQ-126" value="&lt;span style=&quot;font-size: 12px&quot;&gt;显示数组&lt;/span&gt;" style="text;html=1;align=center;verticalAlign=middle;resizable=0;points=[];autosize=1;strokeColor=none;fillColor=none;fontSize=16;fontColor=#000000;" vertex="1" parent="1">
          <mxGeometry x="505" y="520" width="60" height="30" as="geometry" />
        </mxCell>
        <mxCell id="2jlAlg18dNJ3QNVqOmmQ-130" value="" style="edgeStyle=orthogonalEdgeStyle;rounded=0;orthogonalLoop=1;jettySize=auto;html=1;fontSize=12;fontColor=#000000;strokeColor=#FFFFFF;" edge="1" parent="1" source="2jlAlg18dNJ3QNVqOmmQ-128" target="2jlAlg18dNJ3QNVqOmmQ-129">
          <mxGeometry relative="1" as="geometry" />
        </mxCell>
        <mxCell id="2jlAlg18dNJ3QNVqOmmQ-161" value="" style="edgeStyle=orthogonalEdgeStyle;rounded=0;orthogonalLoop=1;jettySize=auto;html=1;fontSize=12;fontColor=#000000;strokeColor=#FFFFFF;" edge="1" parent="1" source="2jlAlg18dNJ3QNVqOmmQ-128" target="2jlAlg18dNJ3QNVqOmmQ-101">
          <mxGeometry relative="1" as="geometry" />
        </mxCell>
        <mxCell id="2jlAlg18dNJ3QNVqOmmQ-128" value="[null,1,2,null,4,5,6,7,8,9,...31,null,null,null,null,null,null]" style="text;html=1;strokeColor=none;fillColor=none;align=left;verticalAlign=middle;whiteSpace=wrap;rounded=0;fontSize=16;fontColor=#000000;" vertex="1" parent="1">
          <mxGeometry x="579" y="570" width="570" height="30" as="geometry" />
        </mxCell>
        <mxCell id="2jlAlg18dNJ3QNVqOmmQ-129" value="&lt;font style=&quot;font-size: 12px&quot;&gt;处理数组&lt;/font&gt;" style="text;html=1;align=center;verticalAlign=middle;resizable=0;points=[];autosize=1;strokeColor=none;fillColor=none;fontSize=16;fontColor=#000000;" vertex="1" parent="1">
          <mxGeometry x="505" y="570" width="60" height="30" as="geometry" />
        </mxCell>
        <mxCell id="2jlAlg18dNJ3QNVqOmmQ-132" value="" style="group;fontColor=#000000;" vertex="1" connectable="0" parent="1">
          <mxGeometry x="605" y="400" width="60" height="30" as="geometry" />
        </mxCell>
        <mxCell id="2jlAlg18dNJ3QNVqOmmQ-133" value="" style="rounded=0;whiteSpace=wrap;html=1;fontColor=#000000;" vertex="1" parent="2jlAlg18dNJ3QNVqOmmQ-132">
          <mxGeometry x="15" width="30" height="30" as="geometry" />
        </mxCell>
        <mxCell id="2jlAlg18dNJ3QNVqOmmQ-134" value="&lt;font&gt;&lt;span style=&quot;font-size: 16px&quot;&gt;30&lt;/span&gt;&lt;/font&gt;" style="text;html=1;strokeColor=none;fillColor=none;align=center;verticalAlign=middle;whiteSpace=wrap;rounded=0;fontSize=14;fontColor=#000000;" vertex="1" parent="2jlAlg18dNJ3QNVqOmmQ-132">
          <mxGeometry width="60" height="30" as="geometry" />
        </mxCell>
        <mxCell id="2jlAlg18dNJ3QNVqOmmQ-138" value="" style="edgeStyle=orthogonalEdgeStyle;rounded=0;orthogonalLoop=1;jettySize=auto;html=1;fontSize=12;fontColor=#000000;strokeColor=#FFFFFF;" edge="1" parent="1" source="2jlAlg18dNJ3QNVqOmmQ-134" target="2jlAlg18dNJ3QNVqOmmQ-97">
          <mxGeometry relative="1" as="geometry" />
        </mxCell>
        <mxCell id="2jlAlg18dNJ3QNVqOmmQ-139" value="" style="group;fontColor=#000000;" vertex="1" connectable="0" parent="1">
          <mxGeometry x="605" y="440" width="60" height="30" as="geometry" />
        </mxCell>
        <mxCell id="2jlAlg18dNJ3QNVqOmmQ-140" value="" style="rounded=0;whiteSpace=wrap;html=1;fontColor=#000000;" vertex="1" parent="2jlAlg18dNJ3QNVqOmmQ-139">
          <mxGeometry x="15" width="30" height="30" as="geometry" />
        </mxCell>
        <mxCell id="2jlAlg18dNJ3QNVqOmmQ-141" value="&lt;font&gt;&lt;span style=&quot;font-size: 16px&quot;&gt;31&lt;/span&gt;&lt;/font&gt;" style="text;html=1;strokeColor=none;fillColor=none;align=center;verticalAlign=middle;whiteSpace=wrap;rounded=0;fontSize=14;fontColor=#000000;" vertex="1" parent="2jlAlg18dNJ3QNVqOmmQ-139">
          <mxGeometry width="60" height="30" as="geometry" />
        </mxCell>
        <mxCell id="2jlAlg18dNJ3QNVqOmmQ-153" value="" style="group;fontColor=#000000;" vertex="1" connectable="0" parent="1">
          <mxGeometry x="325" y="80" width="60" height="30" as="geometry" />
        </mxCell>
        <mxCell id="2jlAlg18dNJ3QNVqOmmQ-154" value="" style="rounded=0;whiteSpace=wrap;html=1;fontColor=#000000;" vertex="1" parent="2jlAlg18dNJ3QNVqOmmQ-153">
          <mxGeometry x="15" width="30" height="30" as="geometry" />
        </mxCell>
        <mxCell id="2jlAlg18dNJ3QNVqOmmQ-155" value="&lt;font style=&quot;font-size: 16px&quot;&gt;0&lt;/font&gt;" style="text;html=1;strokeColor=none;fillColor=none;align=center;verticalAlign=middle;whiteSpace=wrap;rounded=0;fontSize=14;fontColor=#000000;" vertex="1" parent="2jlAlg18dNJ3QNVqOmmQ-153">
          <mxGeometry width="60" height="30" as="geometry" />
        </mxCell>
        <mxCell id="2jlAlg18dNJ3QNVqOmmQ-156" value="" style="group;fontColor=#000000;" vertex="1" connectable="0" parent="1">
          <mxGeometry x="325" y="120" width="60" height="30" as="geometry" />
        </mxCell>
        <mxCell id="2jlAlg18dNJ3QNVqOmmQ-157" value="" style="rounded=0;whiteSpace=wrap;html=1;fontColor=#000000;" vertex="1" parent="2jlAlg18dNJ3QNVqOmmQ-156">
          <mxGeometry x="15" width="30" height="30" as="geometry" />
        </mxCell>
        <mxCell id="2jlAlg18dNJ3QNVqOmmQ-158" value="&lt;font style=&quot;font-size: 16px&quot;&gt;3&lt;/font&gt;" style="text;html=1;strokeColor=none;fillColor=none;align=center;verticalAlign=middle;whiteSpace=wrap;rounded=0;fontSize=14;fontColor=#000000;" vertex="1" parent="2jlAlg18dNJ3QNVqOmmQ-156">
          <mxGeometry width="60" height="30" as="geometry" />
        </mxCell>
        <mxCell id="2jlAlg18dNJ3QNVqOmmQ-159" value="[null,1,2,null,4,5,6,7,8,9,10,11,...,36]" style="text;html=1;strokeColor=none;fillColor=none;align=left;verticalAlign=middle;whiteSpace=wrap;rounded=0;fontSize=16;fontColor=#000000;" vertex="1" parent="1">
          <mxGeometry x="82.5" y="570" width="200" height="30" as="geometry" />
        </mxCell>
        <mxCell id="2jlAlg18dNJ3QNVqOmmQ-160" value="[0,3]" style="text;html=1;strokeColor=none;fillColor=none;align=center;verticalAlign=middle;whiteSpace=wrap;rounded=0;fontSize=16;fontColor=#000000;" vertex="1" parent="1">
          <mxGeometry x="325" y="520" width="60" height="30" as="geometry" />
        </mxCell>
        <mxCell id="2jlAlg18dNJ3QNVqOmmQ-162" value="" style="group;fontColor=#000000;" vertex="1" connectable="0" parent="1">
          <mxGeometry x="825" y="160" width="60" height="30" as="geometry" />
        </mxCell>
        <mxCell id="2jlAlg18dNJ3QNVqOmmQ-163" value="" style="rounded=0;whiteSpace=wrap;html=1;fontColor=#000000;" vertex="1" parent="2jlAlg18dNJ3QNVqOmmQ-162">
          <mxGeometry x="15" width="30" height="30" as="geometry" />
        </mxCell>
        <mxCell id="2jlAlg18dNJ3QNVqOmmQ-164" value="&lt;font style=&quot;font-size: 16px&quot;&gt;32&lt;/font&gt;" style="text;html=1;strokeColor=none;fillColor=none;align=center;verticalAlign=middle;whiteSpace=wrap;rounded=0;fontSize=14;fontColor=#000000;" vertex="1" parent="2jlAlg18dNJ3QNVqOmmQ-162">
          <mxGeometry width="60" height="30" as="geometry" />
        </mxCell>
        <mxCell id="2jlAlg18dNJ3QNVqOmmQ-166" value="" style="group;fontColor=#000000;" vertex="1" connectable="0" parent="1">
          <mxGeometry x="825" y="200" width="60" height="30" as="geometry" />
        </mxCell>
        <mxCell id="2jlAlg18dNJ3QNVqOmmQ-167" value="" style="rounded=0;whiteSpace=wrap;html=1;fontColor=#000000;" vertex="1" parent="2jlAlg18dNJ3QNVqOmmQ-166">
          <mxGeometry x="15" width="30" height="30" as="geometry" />
        </mxCell>
        <mxCell id="2jlAlg18dNJ3QNVqOmmQ-168" value="&lt;font style=&quot;font-size: 16px&quot;&gt;33&lt;/font&gt;" style="text;html=1;strokeColor=none;fillColor=none;align=center;verticalAlign=middle;whiteSpace=wrap;rounded=0;fontSize=14;fontColor=#000000;" vertex="1" parent="2jlAlg18dNJ3QNVqOmmQ-166">
          <mxGeometry width="60" height="30" as="geometry" />
        </mxCell>
        <mxCell id="2jlAlg18dNJ3QNVqOmmQ-169" value="" style="group;fontColor=#000000;" vertex="1" connectable="0" parent="1">
          <mxGeometry x="825" y="240" width="60" height="30" as="geometry" />
        </mxCell>
        <mxCell id="2jlAlg18dNJ3QNVqOmmQ-170" value="" style="rounded=0;whiteSpace=wrap;html=1;fontColor=#000000;" vertex="1" parent="2jlAlg18dNJ3QNVqOmmQ-169">
          <mxGeometry x="15" width="30" height="30" as="geometry" />
        </mxCell>
        <mxCell id="2jlAlg18dNJ3QNVqOmmQ-171" value="&lt;font style=&quot;font-size: 16px&quot;&gt;34&lt;/font&gt;" style="text;html=1;strokeColor=none;fillColor=none;align=center;verticalAlign=middle;whiteSpace=wrap;rounded=0;fontSize=14;fontColor=#000000;" vertex="1" parent="2jlAlg18dNJ3QNVqOmmQ-169">
          <mxGeometry width="60" height="30" as="geometry" />
        </mxCell>
        <mxCell id="2jlAlg18dNJ3QNVqOmmQ-172" value="" style="group;fontColor=#000000;" vertex="1" connectable="0" parent="1">
          <mxGeometry x="825" y="280" width="60" height="30" as="geometry" />
        </mxCell>
        <mxCell id="2jlAlg18dNJ3QNVqOmmQ-173" value="" style="rounded=0;whiteSpace=wrap;html=1;fontColor=#000000;" vertex="1" parent="2jlAlg18dNJ3QNVqOmmQ-172">
          <mxGeometry x="15" width="30" height="30" as="geometry" />
        </mxCell>
        <mxCell id="2jlAlg18dNJ3QNVqOmmQ-174" value="&lt;font style=&quot;font-size: 16px&quot;&gt;35&lt;/font&gt;" style="text;html=1;strokeColor=none;fillColor=none;align=center;verticalAlign=middle;whiteSpace=wrap;rounded=0;fontSize=14;fontColor=#000000;" vertex="1" parent="2jlAlg18dNJ3QNVqOmmQ-172">
          <mxGeometry width="60" height="30" as="geometry" />
        </mxCell>
        <mxCell id="2jlAlg18dNJ3QNVqOmmQ-175" value="" style="group;fontColor=#000000;" vertex="1" connectable="0" parent="1">
          <mxGeometry x="825" y="320" width="60" height="30" as="geometry" />
        </mxCell>
        <mxCell id="2jlAlg18dNJ3QNVqOmmQ-176" value="" style="rounded=0;whiteSpace=wrap;html=1;fontColor=#000000;" vertex="1" parent="2jlAlg18dNJ3QNVqOmmQ-175">
          <mxGeometry x="15" width="30" height="30" as="geometry" />
        </mxCell>
        <mxCell id="2jlAlg18dNJ3QNVqOmmQ-177" value="&lt;font style=&quot;font-size: 16px&quot;&gt;36&lt;/font&gt;" style="text;html=1;strokeColor=none;fillColor=none;align=center;verticalAlign=middle;whiteSpace=wrap;rounded=0;fontSize=14;fontColor=#000000;" vertex="1" parent="2jlAlg18dNJ3QNVqOmmQ-175">
          <mxGeometry width="60" height="30" as="geometry" />
        </mxCell>
      </root>
    </mxGraphModel>
  </diagram>
</mxfile>
